<svg width="64ptpx" height="64ptpx" viewBox="0 0 22.577778 22.577778" version="1.1" id="svg831" inkscape:version="1.1.2 (1:1.1+202202050950+0a00cf5339)" sodipodi:docname="15 - 24 Hours.svg" inkscape:export-filename="/media/taufikramadhan/Data/Tr Design Studio/Project Design/TR Creative Design/Icon Design/Project Hiring/Icon Icons/019 - Commerce And Shopping/5 - Send/15 - 24 Hours.png" inkscape:export-xdpi="576" inkscape:export-ydpi="576" xmlns:inkscape="http://www.inkscape.org/namespaces/inkscape" xmlns:sodipodi="http://sodipodi.sourceforge.net/DTD/sodipodi-0.dtd" xmlns="http://www.w3.org/2000/svg" xmlns:svg="http://www.w3.org/2000/svg" xmlns:rdf="http://www.w3.org/1999/02/22-rdf-syntax-ns#" xmlns:cc="http://creativecommons.org/ns#" xmlns:dc="http://purl.org/dc/elements/1.1/" transform="rotate(0) scale(1, 1)">
  <defs id="defs825">
    <pattern id="EMFhbasepattern" patternUnits="userSpaceOnUse" width="6" height="6" x="0" y="0"/>
    <pattern id="EMFhbasepattern-9" patternUnits="userSpaceOnUse" width="6" height="6" x="0" y="0"/>
    <pattern id="EMFhbasepattern-0" patternUnits="userSpaceOnUse" width="6" height="6" x="0" y="0"/>
    <pattern id="EMFhbasepattern-7" patternUnits="userSpaceOnUse" width="6" height="6" x="0" y="0"/>
    <pattern id="EMFhbasepattern-2" patternUnits="userSpaceOnUse" width="6" height="6" x="0" y="0"/>
    <pattern id="EMFhbasepattern-98" patternUnits="userSpaceOnUse" width="6" height="6" x="0" y="0"/>
    <pattern id="EMFhbasepattern-6" patternUnits="userSpaceOnUse" width="6" height="6" x="0" y="0"/>
    <pattern id="EMFhbasepattern-01" patternUnits="userSpaceOnUse" width="6" height="6" x="0" y="0"/>
    <pattern id="EMFhbasepattern-07" patternUnits="userSpaceOnUse" width="6" height="6" x="0" y="0"/>
    <pattern id="EMFhbasepattern-8" patternUnits="userSpaceOnUse" width="6" height="6" x="0" y="0"/>
    <pattern id="EMFhbasepattern-4" patternUnits="userSpaceOnUse" width="6" height="6" x="0" y="0"/>
    <pattern id="EMFhbasepattern-40" patternUnits="userSpaceOnUse" width="6" height="6" x="0" y="0"/>
    <pattern id="EMFhbasepattern-08" patternUnits="userSpaceOnUse" width="6" height="6" x="0" y="0"/>
    <pattern id="EMFhbasepattern-04" patternUnits="userSpaceOnUse" width="6" height="6" x="0" y="0"/>
    <pattern id="EMFhbasepattern-014" patternUnits="userSpaceOnUse" width="6" height="6" x="0" y="0"/>
    <pattern id="EMFhbasepattern-27" patternUnits="userSpaceOnUse" width="6" height="6" x="0" y="0"/>
    <pattern id="EMFhbasepattern-09" patternUnits="userSpaceOnUse" width="6" height="6" x="0" y="0"/>
    <pattern id="EMFhbasepattern-5" patternUnits="userSpaceOnUse" width="6" height="6" x="0" y="0"/>
    <pattern id="EMFhbasepattern-018" patternUnits="userSpaceOnUse" width="6" height="6" x="0" y="0"/>
  </defs>
  <sodipodi:namedview id="base" pagecolor="#ffffff" bordercolor="#666666" borderopacity="1.0" inkscape:pageopacity="0.0" inkscape:pageshadow="2" inkscape:zoom="5.5546875" inkscape:cx="42.576653" inkscape:cy="42.666667" inkscape:document-units="pt" inkscape:current-layer="layer1" showgrid="false" units="pt" inkscape:window-width="1366" inkscape:window-height="705" inkscape:window-x="0" inkscape:window-y="31" inkscape:window-maximized="1" inkscape:pagecheckerboard="true" inkscape:showpageshadow="false" inkscape:object-paths="true" inkscape:snap-intersection-paths="true" inkscape:snap-smooth-nodes="true" inkscape:snap-midpoints="true" showguides="true" inkscape:snap-bbox="true" inkscape:bbox-nodes="true" inkscape:snap-nodes="false" inkscape:snap-global="true" inkscape:document-rotation="0">
    <inkscape:grid type="xygrid" id="grid1378"/>
    <sodipodi:guide position="0.97013831,21.607643" orientation="78.000048,0" id="guide1380" inkscape:locked="false"/>
    <sodipodi:guide position="0.97013831,0.97013129" orientation="0,78.000005" id="guide1382" inkscape:locked="false"/>
    <sodipodi:guide position="21.607639,0.97013129" orientation="-78.000048,0" id="guide1384" inkscape:locked="false"/>
    <sodipodi:guide position="21.607639,21.607643" orientation="0,-78.000005" id="guide1386" inkscape:locked="false"/>
  </sodipodi:namedview>
  <metadata id="metadata828">
    <rdf:rdf>
      <cc:work rdf:about="">
        <dc:format>image/svg+xml</dc:format>
        <dc:type rdf:resource="http://purl.org/dc/dcmitype/StillImage"/>
      </cc:work>
    </rdf:rdf>
  </metadata>
  <g inkscape:label="Icon" inkscape:groupmode="layer" id="layer1" transform="translate(0,-274.42223)">
    <path id="path68319" style="color:rgb(210, 151, 237);display:inline;fill:rgb(210, 151, 237);stroke-width:0.999999;stroke-linecap:round;stroke-linejoin:round;stroke-miterlimit:1.5;-inkscape-stroke:none" d="m 10.588523,275.3924 c -0.566485,0 -1.0320278,0.46814 -1.0320237,1.03462 v 0.90912 c 0.5631687,-0.098 1.1417057,-0.14957 1.7323947,-0.14957 0.588445,0 1.165391,0.0517 1.726541,0.14892 l -0.0033,-0.91042 c -0.0023,-0.56643 -0.47079,-1.03263 -1.037225,-1.03267 z m -4.6489826,1.91122 c -0.1799369,6.7e-4 -0.3579169,0.0467 -0.5124352,0.13592 l -1.2141067,0.70102 c -0.4829282,0.27883 -0.6656703,0.91046 -0.3784736,1.40789 0.00312,0.005 0.00637,0.0101 0.00975,0.015 l 0.3518115,0.5469 c 0.8165125,-0.80859 1.7702589,-1.47836 2.8222943,-1.97235 l -0.1801329,-0.31929 c -8.656e-4,-0.001 -0.00174,-0.001 -0.00259,-0.003 -0.1532931,-0.26543 -0.3938681,-0.42402 -0.6515987,-0.48447 -0.08054,-0.0189 -0.1627227,-0.0282 -0.2445122,-0.0279 z m 10.6941546,0.005 c -0.08178,-2.4e-4 -0.163971,0.009 -0.244511,0.0279 -0.25773,0.0604 -0.498307,0.22095 -0.651599,0.48643 -8.66e-4,0.001 -0.0018,0.001 -0.0026,0.003 l -0.174931,0.31215 c 1.052177,0.49406 2.00571,1.16426 2.822296,1.973 l 0.349209,-0.54234 c 0.0025,-0.004 0.0049,-0.009 0.0072,-0.013 0.287197,-0.49744 0.107053,-1.13169 -0.375871,-1.4105 l -1.216708,-0.70037 c -0.15452,-0.0892 -0.332499,-0.13539 -0.512436,-0.13592 z m -5.344801,0.5339 c -5.2047622,0 -9.4306277,4.22588 -9.4306255,9.43063 -1.36e-5,0.001 -1.36e-5,0.004 0,0.005 0.052441,3.42062 1.5866889,5.62363 3.1019228,6.93869 1.5152335,1.31506 3.0303898,1.77467 3.0303898,1.77467 0.3220764,0.10142 0.5731324,-0.28572 0.3492101,-0.53845 -2.1196472,-2.42652 -3.9645395,-5.18241 -4.0656646,-8.17945 -2.3e-6,-3.87856 3.1361935,-7.01477 7.0147674,-7.01477 3.878573,0 7.01477,3.13621 7.014767,7.01477 3e-6,1.66678 -0.589594,3.18775 -1.561365,4.38886 l 0.625586,0.62558 c 0.130718,0.13014 0.130718,0.34198 0,0.47213 -0.130144,0.13072 -0.341322,0.13072 -0.471466,0 l -1.348069,-1.34808 c -0.344678,-0.34467 -0.980797,-0.12043 -1.034624,0.36417 l -0.429847,3.88293 c -0.02406,0.21175 0.154207,0.39129 0.366119,0.36872 l 3.885531,-0.43245 c 0.484603,-0.0537 0.706296,-0.68989 0.361565,-1.03462 -0.249646,-0.24965 -0.512464,-0.51247 -0.690615,-0.69062 1.670453,-1.70131 2.713045,-4.0254 2.713043,-6.59662 4e-6,-5.20473 -4.225863,-9.43062 -9.430625,-9.43062 z m 0,3.14874 a 0.33295291,0.33295291 0 0 0 -0.334254,0.33426 v 0.34921 a 0.33295291,0.33295291 0 0 0 0.334254,0.33425 0.33295291,0.33295291 0 0 0 0.331652,-0.33425 v -0.34921 a 0.33295291,0.33295291 0 0 0 -0.331652,-0.33426 z m -3.7112522,1.53861 a 0.33295291,0.33295291 0 0 0 -0.2360585,0.0956 0.33295291,0.33295291 0 0 0 0,0.47212 l 0.248414,0.24842 a 0.33295291,0.33295291 0 0 0 0.4695152,0 0.33295291,0.33295291 0 0 0 0,-0.47212 L 7.8137,282.62816 a 0.33295291,0.33295291 0 0 0 -0.2360582,-0.0982 z m 7.4225042,0 a 0.33295291,0.33295291 0 0 0 -0.235408,0.0982 l -0.245813,0.24582 a 0.33295291,0.33295291 0 0 0 0,0.47211 0.33295291,0.33295291 0 0 0 0.468866,0 l 0.248414,-0.24842 a 0.33295291,0.33295291 0 0 0 0,-0.47212 0.33295291,0.33295291 0 0 0 -0.236059,-0.0956 z m -6.0731355,1.99577 a 0.33295291,0.33295291 0 0 0 -0.3342532,0.33426 0.33295291,0.33295291 0 0 0 0.3342532,0.33164 H 10.34271 v 1.08405 H 8.9270105 a 0.33298621,0.33298621 0 0 0 -0.3342532,0.33426 v 1.74994 a 0.33298621,0.33298621 0 0 0 0.3342532,0.33166 h 1.7499525 a 0.33295291,0.33295291 0 0 0 0.331653,-0.33162 0.33295291,0.33295291 0 0 0 -0.331653,-0.33425 H 9.2586627 v -1.08404 h 1.4183003 a 0.33298621,0.33298621 0 0 0 0.331653,-0.33165 v -1.74995 a 0.33298621,0.33298621 0 0 0 -0.331653,-0.33426 z m 2.9738135,0 a 0.33295291,0.33295291 0 0 0 -0.331652,0.33426 v 1.74995 a 0.33298621,0.33298621 0 0 0 0.331652,0.33165 h 1.4157 v 1.41829 a 0.33295291,0.33295291 0 0 0 0.334253,0.33166 0.33295291,0.33295291 0 0 0 0.332303,-0.33166 v -1.74994 -1.74995 a 0.33295291,0.33295291 0 0 0 -0.332303,-0.33426 0.33295291,0.33295291 0 0 0 -0.334253,0.33426 v 1.41569 h -1.081446 v -1.41569 a 0.33295291,0.33295291 0 0 0 -0.334254,-0.33426 z m -5.861788,1.71548 a 0.33295291,0.33295291 0 0 0 -0.3316521,0.33165 0.33295291,0.33295291 0 0 0 0.3316521,0.33426 h 0.3518112 a 0.33295291,0.33295291 0 0 0 0.3316521,-0.33409 0.33295291,0.33295291 0 0 0 -0.3316521,-0.33166 z m 10.148555,0 a 0.33295291,0.33295291 0 0 0 -0.331652,0.33165 0.33295291,0.33295291 0 0 0 0.331652,0.33426 h 0.35116 a 0.33295291,0.33295291 0 0 0 0.332303,-0.33426 0.33295291,0.33295291 0 0 0 -0.332303,-0.33165 z m -1.435208,3.46284 a 0.33295291,0.33295291 0 0 0 -0.233458,0.0981 0.33295291,0.33295291 0 0 0 0,0.47212 l 0.245813,0.24582 a 0.33295291,0.33295291 0 0 0 0.471467,0 0.33295291,0.33295291 0 0 0 0,-0.46951 l -0.248414,-0.24843 a 0.33295291,0.33295291 0 0 0 -0.235408,-0.0981 z m -6.9276281,0.003 a 0.33295291,0.33295291 0 0 0 -0.2347576,0.0969 l -0.248414,0.24776 a 0.33295291,0.33295291 0 0 0 0,0.46952 0.33295291,0.33295291 0 0 0 0.4721167,0 l 0.2458125,-0.24582 a 0.33295291,0.33295291 0 0 0 0,-0.47146 0.33295291,0.33295291 0 0 0 -0.2347576,-0.0969 z m 3.4641391,1.43386 a 0.33295291,0.33295291 0 0 0 -0.334254,0.33424 v 0.34857 a 0.33295291,0.33295291 0 0 0 0.334254,0.33231 0.33295291,0.33295291 0 0 0 0.331652,-0.33231 v -0.34857 a 0.33295291,0.33295291 0 0 0 -0.331652,-0.33424 z m -3.4999054,1.40074 a 0.33295291,0.33295291 0 0 0 -0.331652,0.33165 0.33295291,0.33295291 0 0 0 0.331652,0.33426 h 1.4013929 a 0.33295291,0.33295291 0 0 0 0.3316518,-0.33426 0.33295291,0.33295291 0 0 0 -0.3316518,-0.33165 z m 1.0495814,1.39879 a 0.33295291,0.33295291 0 0 0 -0.3316522,0.33425 0.33295291,0.33295291 0 0 0 0.3316522,0.33166 h 1.749953 a 0.33295291,0.33295291 0 0 0 0.334253,-0.33166 0.33295291,0.33295291 0 0 0 -0.334253,-0.33425 z m 0.7003714,1.40074 a 0.33295291,0.33295291 0 0 0 -0.3316522,0.33166 0.33295291,0.33295291 0 0 0 0.3316522,0.33425 h 3.1487436 a 0.33295291,0.33295291 0 0 0 0.334254,-0.33425 0.33295291,0.33295291 0 0 0 -0.334254,-0.33166 z" fill="rgb(210, 151, 237)"/>
  </g>
</svg>