<svg version="1.1" xmlns="http://www.w3.org/2000/svg" xmlns:xlink="http://www.w3.org/1999/xlink" width="24px" height="24px" viewBox="0,0,256,256"><g fill="rgb(210, 151, 237)" fill-rule="nonzero" stroke="none" stroke-width="1" stroke-linecap="butt" stroke-linejoin="miter" stroke-miterlimit="10" stroke-dasharray="" stroke-dashoffset="0" font-family="none" font-weight="none" font-size="none" text-anchor="none" style="mix-blend-mode: normal"><g transform="translate(0,-0.13437) scale(10.66667,10.66667)"><g id="_21._Verified"><path d="M22.506,13.759c-0.75924,-1.04941 -0.75924,-2.46759 0,-3.517l0.764,-1.055c0.18779,-0.25893 0.24039,-0.59208 0.1415,-0.89627c-0.09889,-0.30419 -0.33734,-0.54272 -0.6415,-0.64173l-1.229,-0.4c-1.2352,-0.39996 -2.07167,-1.55066 -2.071,-2.849v-1.3c0.00009,-0.31978 -0.15276,-0.62032 -0.41124,-0.8086c-0.25848,-0.18828 -0.59142,-0.24157 -0.89576,-0.1434l-1.245,0.4c-1.23318,0.3974 -2.58214,-0.04177 -3.345,-1.089l-0.765,-1.048c-0.19684,-0.24469 -0.49396,-0.387 -0.808,-0.387c-0.31404,0 -0.61116,0.14231 -0.808,0.387l-0.765,1.05c-0.76286,1.04723 -2.11182,1.4864 -3.345,1.089l-1.245,-0.4c-0.304,-0.09807 -0.63657,-0.045 -0.89495,0.14281c-0.25839,0.18781 -0.4115,0.48776 -0.41205,0.80719v1.3c0.00067,1.29834 -0.8358,2.44904 -2.071,2.849l-1.229,0.4c-0.30416,0.099 -0.5426,0.33753 -0.6415,0.64173c-0.09889,0.30419 -0.0463,0.63734 0.1415,0.89627l0.764,1.054c0.75924,1.04941 0.75924,2.46759 0,3.517l-0.764,1.055c-0.18779,0.25893 -0.24039,0.59208 -0.1415,0.89627c0.09889,0.30419 0.33734,0.54272 0.6415,0.64173l1.229,0.4c1.2352,0.39996 2.07167,1.55066 2.071,2.849v1.3c0.00002,0.32009 0.15327,0.62083 0.41223,0.80897c0.25896,0.18814 0.59234,0.24094 0.89677,0.14203l1.236,-0.4c1.23608,-0.40519 2.59229,0.03555 3.354,1.09l0.762,1.048c0.18815,0.25896 0.48891,0.41219 0.809,0.41219c0.32009,0 0.62085,-0.15323 0.809,-0.41219l0.762,-1.048c0.76211,-1.05391 2.11792,-1.49453 3.354,-1.09l1.236,0.4c0.30443,0.09891 0.6378,0.04611 0.89677,-0.14203c0.25896,-0.18814 0.41221,-0.48888 0.41223,-0.80897v-1.3c-0.00241,-1.29981 0.8344,-2.45259 2.071,-2.853l1.229,-0.4c0.30416,-0.099 0.5426,-0.33753 0.6415,-0.64173c0.09889,-0.30419 0.0463,-0.63734 -0.1415,-0.89627zM20.846,14.875c-1.99464,0.68061 -3.34608,2.54165 -3.376,4.649c-2.01544,-0.62421 -4.20564,0.0869 -5.47,1.776c-0.94082,-1.25836 -2.41982,-1.99953 -3.991,-2c-0.50135,0.00036 -0.99984,0.07552 -1.479,0.223c-0.03022,-2.10725 -1.38155,-3.96813 -3.376,-4.649c1.21498,-1.72412 1.21498,-4.02588 0,-5.75c1.99514,-0.68111 3.34662,-2.54301 3.376,-4.651c2.0148,0.62424 4.2045,-0.08551 5.47,-1.773c1.26454,1.68884 3.45456,2.3999 5.47,1.776c0.02896,2.10836 1.38052,3.97076 3.376,4.652c-1.21358,1.72347 -1.21358,4.02353 0,5.747z"></path><path d="M15.293,9.293l-4.293,4.293l-2.293,-2.293c-0.25107,-0.25996 -0.62288,-0.36421 -0.97251,-0.2727c-0.34963,0.09152 -0.62267,0.36456 -0.71419,0.71419c-0.09152,0.34963 0.01274,0.72143 0.2727,0.97251l3,3c0.3905,0.39038 1.0235,0.39038 1.414,0l5,-5c0.37897,-0.39238 0.37355,-1.01608 -0.01218,-1.40182c-0.38573,-0.38573 -1.00944,-0.39115 -1.40182,-0.01218z"></path></g></g></g></svg>