<?xml version="1.0" encoding="utf-8"?>
<!-- Generator: Adobe Illustrator 24.0.1, SVG Export Plug-In . SVG Version: 6.00 Build 0)  -->
<svg version="1.1" id="Capa_1" xmlns="http://www.w3.org/2000/svg" xmlns:xlink="http://www.w3.org/1999/xlink" x="0px" y="0px"
	 viewBox="0 0 80.4 70.7" style="enable-background:new 0 0 80.4 70.7;" xml:space="preserve">
<style type="text/css">
	.st0{opacity:0.8;fill:#AAA7A9;}
	.st1{fill:#B4DCF8;}
	.st2{fill:#9CCEF5;}
	.st3{opacity:0.57;fill:#FFFFFF;}
	.st4{fill:#F7C1D6;}
	.st5{fill:#F6A2C4;}
	.st6{fill:#D8A2F2;}
</style>
<g>
	<path class="st0" d="M31.5,20.1L14.3,30.4c-5.8,3.5-7.7,11.1-4.2,16.9l0.7,1.2c3.5,5.9,11.1,7.8,16.9,4.3L45,42.6L31.5,20.1z"/>
	<path class="st1" d="M31.4,20.4l-17,10.2C8.6,34,6.8,41.5,10.2,47.2l0.7,1.2c3.4,5.7,10.9,7.6,16.7,4.2l16.9-10.2L31.4,20.4z"/>
	<path class="st2" d="M24.5,47.5c-5.1,3-11.5,1.9-15.3-2.3c0.3,0.7,0.6,1.4,1,2.1l0.7,1.2c3.4,5.7,10.9,7.6,16.7,4.2l16.9-10.1
		l-3.1-5.2L24.5,47.5z"/>
	<path class="st3" d="M16.4,34.5c-1.4,0.8-1.9,2.7-1,4.1l0.2,0.3c0.8,1.4,2.7,1.9,4.1,1l17.2-10.3l-3.2-5.4L16.4,34.5z"/>
</g>
<g>
	<path class="st0" d="M31.7,20L49.1,9.7C55,6.2,62.5,8.1,66,14l0.7,1.2c3.5,5.9,1.5,13.4-4.3,16.9L45.1,42.4L31.7,20z"/>
	<path class="st4" d="M32,19.9L49.1,9.8c5.8-3.4,13.3-1.5,16.7,4.3l0.7,1.2c3.4,5.8,1.5,13.3-4.3,16.7L45.2,42.1L32,19.9z"/>
	<path class="st5" d="M59.2,26.8c5.1-3,7.2-9.2,5.2-14.6c0.5,0.6,1,1.2,1.4,1.9l0.7,1.2c3.4,5.8,1.5,13.3-4.3,16.7l-17,10.1
		l-3.1-5.2L59.2,26.8z"/>
	<path class="st3" d="M51.6,13.5c1.4-0.8,3.2-0.4,4.1,1l0.2,0.3c0.8,1.4,0.4,3.2-1,4.1L37.5,29.2l-3.2-5.4L51.6,13.5z"/>
</g>
</svg>
