<?xml version="1.0" encoding="utf-8"?>
<!-- Generator: Adobe Illustrator 24.0.1, SVG Export Plug-In . SVG Version: 6.00 Build 0)  -->
<svg version="1.1" id="Capa_1" xmlns="http://www.w3.org/2000/svg" xmlns:xlink="http://www.w3.org/1999/xlink" x="0px" y="0px"
	 viewBox="0 0 246.4 246.7" style="enable-background:new 0 0 246.4 246.7;" xml:space="preserve">
<style type="text/css">
	.st0{opacity:0.8;fill:#AAA7A9;}
	.st1{fill:#B4DCF8;}
	.st2{fill:#9CCEF5;}
	.st3{opacity:0.57;fill:#FFFFFF;}
	.st4{fill:#F7C1D6;}
	.st5{fill:#F6A2C4;}
	.st6{fill:#D8A2F2;}
</style>
<g>
	<g>
		<g>
			<g>
				<g>
					<path class="st6" d="M164.6,65.6c-10.5-7.8-23.3-12.3-36.4-14.1c-13.8-1.9-28.3-1.7-41,4.2C64.3,66.4,52.4,92.3,53.9,116
						c0.8,13.2,5.8,25.1,12.7,36.3c6.7,10.9,14.4,21.3,18.8,33.4c1.1,3.1,2,6.2,2.7,9.3c-0.4,0.2-0.8,0.5-1.2,0.8
						c-2.4,2.1-2.1,5.4-0.3,7.8c0.3,0.3,0.5,0.6,0.8,0.9c-0.7,0.3-1.4,0.8-1.9,1.4c-1.7,2-1.6,5-0.3,7.2c0.5,0.9,1.3,1.7,2.1,2.3
						c-2.8,3-1.2,8.6,2,10.9c2.3,1.7,5.2,2.2,8,2.4c2.3,0.2,4.6,0.2,6.9,0.3c-0.5,1.7,0.4,3.4,1.6,4.7c2.3,2.4,5.7,3.1,8.9,3.4
						c3.6,0.3,7.5,0.2,11.1-0.5c3.6-0.7,6.8-2.4,9.4-4.9c1.2-1.1,1.5-2.8,0.9-4.3c3.2-0.5,6.4-1.2,9.5-2.2c3-0.9,6.1-2.5,7-5.6
						c0.6-2-0.1-3.7-1.4-5.1c1.7-1,3.2-2.3,4.1-4.1c1.3-2.5,1.3-5.5-0.2-7.8c2.2-1.5,3.7-3.6,3.5-6.4c-0.1-3.8-3-6.8-6.8-6.5
						c-0.1,0-0.3-0.1-0.4-0.1c2.8-4.9,6-9.6,9.2-14.2c3.7-5.4,7.8-10.5,12.1-15.5c8.6-10,16.6-20.4,18.5-33.6
						C194.4,103.5,183.5,79.7,164.6,65.6z M147.5,217.8c-0.7,0.8-1.9,1.2-2.9,1.4c-2.7,0.7-5.5,1.3-8.2,1.8
						c-6,1.1-12.1,1.6-18.2,1.8c-6.1,0.2-12.1,0.1-18.2-0.2c-2.1-0.1-5.2,0.1-6.9-1.3c-1-0.8-0.8-1.6-0.1-2.3
						c0.3-0.3,0.6-0.6,0.7-0.9c3.2,0.6,6.6,0.7,9.2,0.8c7.6,0.2,15.2-0.4,22.8-0.7c3.8-0.2,7.5-0.4,11.2-0.7
						c3.4-0.3,6.9-0.6,10.2-1.4c0.2,0,0.3-0.1,0.5-0.1c0.1,0.1,0.2,0.2,0.4,0.3C148.2,216.4,147.7,217.6,147.5,217.8z M147.8,209.6
						c-2.4,1.4-5.9,1.6-8.6,2c-6.9,0.9-14,1.6-21,2c-6.7,0.4-13.5,0.9-20.2,0.2c-2.4-0.3-6.2-0.6-8-2.4c-0.6-0.6-1.1-1.7-0.7-2.5
						c0.6-1.2,2.9-0.8,4-0.7c0.4,0,0.6-0.1,0.9-0.2c3.8,0.8,8.2,0.7,11.7,0.6c8-0.1,16.1-0.6,24.1-1.2c4.1-0.3,8.2-0.8,12.2-1.4
						c1.9-0.3,3.8-0.5,5.7-0.8c0.2,0.4,0.4,0.7,0.7,0.9C149.8,207.1,149.1,208.8,147.8,209.6z M151.4,196.9
						C151.4,196.9,151.4,197,151.4,196.9c-0.1,0.1-0.3,0.3-0.3,0.3c-0.4,0.3-0.8,0.6-1.3,0.8c-2.9,1.2-6.4,1.5-9.4,2.1
						c-7.1,1.4-14.4,2.6-21.6,3.1c-6.9,0.5-14.2,1.1-21.1,0.4c-2.5-0.2-6.5-0.9-7.7-3.4c-0.3-0.7,0.1-1.4,0.9-1.9
						c1.4,0.3,3.1-0.1,4.2-1.1c0.8,0,1.6,0,2.4,0c2.7,0,5.3,0,8,0l16.3-0.3c5.3-0.1,10.6-0.3,15.9-0.2c2.8,0,5.6,0,8.3,0.1
						c1.3,0,2.5,0,3.8,0c0.2,0,0.4,0,0.6,0C150.8,196.8,151.1,196.9,151.4,196.9z M99.7,130.1c3.1,2,6.5,3.6,10.2,3.7
						c2.2,0.1,4.1-0.4,5.8-1.3c1.3,1.1,2.7,2.1,4.3,2.7c4.7,2,9.8,1,13.8-1.9c0.5-0.4,1.1-0.8,1.6-1.3c0.1,0.2,0.3,0.3,0.4,0.5
						c1.7,1.7,3.7,2.9,5.9,3.5c-5.5,7.7-10.2,16-13.9,24.7c-2.1,5-3.9,10.1-5.3,15.3c-0.7,2.7-1.3,5.3-1.9,8
						c-0.4,1.9-0.8,3.9-0.9,5.8c-1.2,0.1-2.5,0.2-3.7,0.3c-0.1-2.2-0.5-4.3-0.8-6.4c-0.4-3-0.9-5.9-1.5-8.9
						c-1.1-6-2.5-12.1-4.5-17.9c-3.1-8.8-7.6-17.1-13.9-24.2C97,132,98.4,131.2,99.7,130.1z M115.6,115c0.6,0.6,0.9,1.4,1.2,2.1
						c0.7,2,0.5,4.3-0.3,6.2c0,0.1-0.1,0.1-0.1,0.2c-0.4-1-0.8-2-1.1-3.1c-0.3-1.1-0.5-2.2-0.7-3.3c-0.1-0.5-0.7-2.7-0.2-3.2
						C114.2,114.1,115.4,114.8,115.6,115z M135.2,118.4c0-0.7,0.1-1.4,0.5-2.1c0.1,0.5,0.3,1,0.3,1c0.2,1.3,0,2.6-0.4,3.9
						C135.3,120.3,135.1,119.4,135.2,118.4z M151.7,121.1c0,0,0.1,0,0.1,0c1.1,3.1-0.6,7-3.4,8.9c0-1.3,0.1-2.6,0.4-3.9
						c0.3-1.2,0.7-2.3,1.4-3.3c0.2-0.3,0.4-0.6,0.7-0.9C151.1,121.6,151.4,121.3,151.7,121.1z M180.9,136.5
						c-2.5,5.4-6.1,10.3-9.8,15c-7.9,9.9-15.5,19.8-21.3,31.1c-1.2,2.4-2.2,4.9-3.3,7.3c-0.4,0-0.9,0.1-1.3,0.1
						c-2.5,0.1-5.1,0.3-7.6,0.4c-4.4,0.2-8.9,0.3-13.3,0.4c0.6-1.9,0.9-3.9,1.3-5.8c0.6-2.6,1.2-5.1,2-7.6
						c1.4-5.1,3.2-10.1,5.3-14.9c4.1-9.5,9.5-18.5,16-26.7c0.5-0.2,0.9-0.3,1.3-0.5c5.2-2.5,7.8-8.5,7.2-13.9
						c-0.2-2.2-1.2-4.3-3.4-5.3c-2.6-1.2-5.4,0.3-7.1,2.2c-3.3,3.4-4.1,8.3-3.2,12.7c-1.9-0.4-3.4-1.7-4.7-3.2
						c1.3-2.1,2.2-4.3,2.6-6.7c0.7-4-0.3-11.4-6-11.1c-5,0.2-6.7,6.3-6.2,10.2c0.3,2.4,1.2,4.9,2.5,7.2c-0.5,0.5-1.1,1-1.7,1.5
						c-3.3,2.4-7.1,2.1-10-0.1c3.3-4.5,4.1-11,1.1-15.9c-2.3-3.7-8-6.4-11.6-2.6c-1.7,1.8-1.7,4.3-1.4,6.6c0.4,2.6,0.9,5.2,1.9,7.7
						c0.4,1.1,0.9,2.1,1.5,3.1c-0.2,0.1-0.5,0.1-0.7,0.1c-2.6,0.3-5.1-1.1-7.2-2.3c-0.2-0.1-0.3-0.2-0.5-0.3
						c0.2-0.5,0.4-1.1,0.5-1.7c0.8-4.1-0.9-8.6-4.2-11.3c-1.7-1.4-3.9-2.6-6.1-2.4c-3.1,0.2-4.1,3.1-4.1,5.6c0,4,2.1,7.6,4.9,10.5
						c-3.6,2-8.3,0.4-11.5-2c-1.6-1.2-4.1-0.2-5,1.3c-1.1,1.8-0.3,3.7,1.3,4.8c2.8,2,6.1,3.3,9.6,3.6c7.3,7.2,12.1,16.2,15.2,25.8
						c1.8,5.6,3.2,11.2,4.3,17c0.6,3,1,5.9,1.5,8.9c0.3,2,0.6,4.1,1.1,6.1l-5.3,0.1c-2.7,0.1-5.3,0.2-8,0.3c-0.6,0-1.1,0-1.7,0.1
						c-1.7-5.7-3.8-11.4-6.5-16.8c-2.7-5.4-6-10.6-9.3-15.7c-6.6-10.1-13.6-20.2-16.7-31.9c-5.7-21.5,1-47,19.9-60.8
						c10-7.3,22.1-9.4,34.4-8.9c12.6,0.5,25.4,3.3,36.4,9.5c18.5,10.4,30.6,30.6,30.5,51.3C184.5,124.6,183.5,130.8,180.9,136.5z"/>
				</g>
			</g>
		</g>
		<path class="st2" d="M43,96.9c-2.5-1.5-5.9-1.4-8.8-1.7c-2.5-0.3-5-0.4-7.6-0.7c-2.5-0.2-5-0.3-7.6-0.4c-2.6-0.1-5.1,0.9-5.9,3.5
			c-0.4,1.2,0.3,2.6,1.4,3.3c0.9,0.5,1.9,0.5,2.8,0c0.1,0,0.2,0,0.2,0c0.1,0,0.2,0,0.2,0c0.1,0,0.2,0.1,0.4,0.1
			c1.1,0.3,2.2,0.5,3.3,0.7c2.1,0.4,4.2,0.7,6.3,1c2.3,0.3,4.6,0.7,6.9,1c2.4,0.3,5,0.9,7.4,0.2C45.2,103,45.9,98.7,43,96.9z"/>
		<path class="st2" d="M56.1,59.1c-0.3-0.5-0.6-0.9-0.9-1.4c-0.5-0.7-1.3-1.2-2-1.7c-0.8-0.5-1.7-0.9-2.6-1.4
			c-1.7-0.9-3.4-1.9-5-2.9c-1.6-1-3.2-1.9-4.8-3c-0.8-0.5-1.6-1.1-2.4-1.6c-0.5-0.4-1.1-0.7-1.8-0.9c-0.2-0.1-0.4-0.1-0.6-0.1
			C35.8,46,35.5,46,35.2,46c-0.2,0-0.2,0,0,0c-0.9-0.3-2,0.2-2.5,0.9c-0.5,0.7-0.6,1.4-0.4,2.1c0,0.3,0.1,0.6,0.1,0.9
			c0.1,0.3,0.3,0.7,0.4,1c0.3,0.6,0.7,1.1,1.2,1.6c0.6,0.7,1.4,1.4,2.1,2c1.5,1.4,3.1,2.9,4.7,4.1c1.6,1.3,3.3,2.5,5.1,3.6
			c0.8,0.5,1.6,1.1,2.5,1.5c1.5,0.7,2.8,1,4.5,0.9C55.6,64.4,57.6,61.6,56.1,59.1z"/>
		<path class="st2" d="M95.1,33.4c-0.5-3.4-1.8-6.7-2.8-10c-1-3.3-2.2-6.6-3.3-9.9c-0.4-1.2-1.7-2-3-1.7c-1.4,0.4-1.9,1.7-1.7,2.9
			c0.6,3.4,1.1,6.9,1.8,10.3c0.7,3.4,1.1,6.9,2.2,10.2c0.6,1.7,2.4,3,4.3,2.4C94.6,37.1,95.4,35.4,95.1,33.4z"/>
		<path class="st2" d="M122.6,23.8c-0.2-1.1-0.5-2.1-0.7-3.2c-0.4-2.1-0.9-4.2-1.3-6.3c-0.2-1.1-1.5-1.8-2.6-1.6
			c-1.1,0.1-2.1,1.1-2,2.3c0.2,2.1,0.3,4.3,0.5,6.4c0.1,1.1,0.1,2.1,0.2,3.2c0.1,1.3,0.4,2.5,0.6,3.7c0.3,1.4,1.9,2.2,3.2,2.1
			c1.3-0.2,2.7-1.4,2.6-2.8C122.9,26.3,122.9,25.1,122.6,23.8z"/>
		<path class="st2" d="M150.9,35c0.5-1,0.9-2,1.3-3c0.9-2,1.8-3.9,2.7-5.9c0.5-1-0.1-2.3-1.1-2.9c-1-0.5-2.4-0.4-3,0.6
			c-1.1,1.8-2.3,3.6-3.4,5.5c-0.6,0.9-1.2,1.8-1.7,2.7c-0.7,1.1-1.2,2.2-1.7,3.4c-0.6,1.3,0.2,2.9,1.4,3.6c1.2,0.6,3,0.5,3.7-0.8
			C149.7,37.2,150.4,36.1,150.9,35z"/>
		<path class="st2" d="M184.3,30.5c-1-0.4-2.4-0.1-2.9,0.9c-1.3,2.5-2.6,5-3.8,7.5c-0.6,1.3-1.3,2.5-1.9,3.8
			c-0.7,1.4-1.2,2.9-1.7,4.3c-0.5,1.2,0.4,2.7,1.6,3.1c1.2,0.5,2.8,0.1,3.4-1.1c0.7-1.4,1.5-2.7,2.1-4.2c0.5-1.3,1-2.6,1.6-3.9
			c1-2.6,2.1-5.2,3.1-7.8C186.1,32.2,185.3,30.9,184.3,30.5z"/>
		<path class="st2" d="M226.1,64.3c-0.8-1.2-2.3-1.6-3.5-0.9c-2.1,1.1-4.2,2.3-6.3,3.4c-2.1,1.1-4.1,2.4-6.1,3.6
			c-1.5,0.9-2.2,2.9-1.2,4.5c0.9,1.4,3,2.2,4.5,1.2c2-1.3,4-2.6,5.9-4c1.9-1.4,3.8-2.8,5.8-4.2c0.6-0.4,1-0.8,1.2-1.5
			C226.5,65.6,226.4,64.8,226.1,64.3z"/>
		<path class="st2" d="M226.4,107c-1.7-0.6-3.7-0.4-5.4-0.2c-1.7,0.2-3.4,0.3-5.1,0.3c-3.3,0.1-6.7-0.1-10-0.2c-1.2,0-2.3,1-2.4,2.1
			c-0.1,1.2,0.6,2.3,1.8,2.7c3.4,1.1,7.1,1.6,10.7,2.1c3.6,0.4,8.2,1,11.4-0.8C229.8,111.5,229.1,107.9,226.4,107z"/>
		<path class="st2" d="M196.5,163.2c-0.8-1-1.7-2-2.7-3c-1.1-1-2.5-1.8-3.7-2.6c-2.3-1.4-4.7-2.7-7.1-3.9c-1.1-0.5-2.6-0.3-3.2,0.8
			c-0.6,1.2-0.3,2.5,0.8,3.2c1.1,0.7,2.2,1.4,3.3,2.2c0,0,0.2,0.1,0.3,0.2c0.1,0.1,0.2,0.1,0.2,0.2c0.2,0.2,0.5,0.4,0.7,0.6
			c0.5,0.4,1,0.9,1.6,1.3c1.1,0.9,2.2,2,3.4,2.8c1.1,0.7,2.2,1.5,3.3,2.2c1.1,0.7,2.6,0.3,3.4-0.7
			C197.6,165.5,197.3,164.2,196.5,163.2z"/>
		<path class="st2" d="M61.4,166.8c-0.8-1.2-2.6-1.9-3.9-1c-4.1,2.8-8.2,5.6-12.5,8.3c-1,0.6-1.4,1.9-0.8,2.9c0.6,1,1.9,1.4,2.9,0.8
			c4.3-2.5,8.8-4.8,13.2-7.1C61.7,169.9,62.2,168.1,61.4,166.8z"/>
		<path class="st2" d="M49.6,143.4c-0.8-1.3-2.6-1.9-4-1c-2.8,1.7-5.7,3.5-8.5,5.2c-1.2,0.8-1.8,2.5-1,3.7c0.8,1.3,2.4,1.7,3.8,1
			c2.9-1.6,5.8-3.3,8.7-4.9C49.9,146.5,50.5,144.7,49.6,143.4z"/>
		<path class="st4" d="M167.9,88.6c-2.4-3.4-5.3-6.6-8.5-9.2c-3.4-2.8-7-4.6-11.2-6c-2.1-0.7-3,2.2-1.4,3.3c3,2.1,5.8,4.7,8.3,7.2
			c2.5,2.6,4.7,5.5,6.4,8.6c3.5,6.2,5.4,13.1,6,20.2c0.4,4.6,6.9,4.6,7.3,0C175.6,104.3,172.9,95.6,167.9,88.6z"/>
	</g>
</g>
</svg>
